<?xml version="1.0" encoding="UTF-8"?>
<svg xmlns="http://www.w3.org/2000/svg" viewBox="0 0 1400 1000" role="img" aria-labelledby="title desc">
  <title id="title">SSH-Protokollphasen, Identitäten und sichere Administration</title><desc id="desc">Interaktive Übersicht über TCP, Versionsaustausch, Key Exchange, Hostidentität, Benutzerautorisierung, Channels, Schlüssel, Zertifikate, Forwarding, Policy, Audit und Recovery.</desc>
  <style>:root{color-scheme:light}.bg{fill:#faf8f4}.panel{fill:#fff;stroke:#d8d1c8;stroke-width:2}.head{fill:#f1ede7}.hit{fill:#edf5f7;stroke:#24738e;stroke-width:1.8;transition:fill .16s ease,stroke .16s ease}.hit.trust{fill:#f7f1ec;stroke:#8b3518}.hit.channel{fill:#f2f5ea;stroke:#55743a}.hit.ops{fill:#f1eff8;stroke:#6752a1}.t{font-family:Inter,Segoe UI,Arial,sans-serif;fill:#111827}.ey{font-size:16px;font-weight:700;letter-spacing:2px;fill:#687086}.h1{font-size:30px;font-weight:750}.h2{font-size:17px;font-weight:750;letter-spacing:1.25px}.label{font-size:15.5px;font-weight:750;text-anchor:middle}.sub{font-size:12px;text-anchor:middle;fill:#526673}.note{font-size:13px;fill:#65717a}.arrow{stroke:#7f8c93;stroke-width:2;fill:none;marker-end:url(#arr)}a{text-decoration:none;outline:none}a:hover .hit,a:focus .hit{fill:#d4edf5;stroke:#075f7d;stroke-width:3}a:hover .hit.trust,a:focus .hit.trust{fill:#f8dfd2;stroke:#7a270e}a:hover .hit.channel,a:focus .hit.channel{fill:#dfeccd;stroke:#365a1d}a:hover .hit.ops,a:focus .hit.ops{fill:#e2dcf7;stroke:#4c3789}a:focus .hit{filter:url(#focus)}.pill{fill:#1f6f89}.pilltext{fill:#fff;font-size:13px;font-weight:700;text-anchor:middle}</style>
  <defs><marker id="arr" viewBox="0 0 10 10" refX="9" refY="5" markerWidth="7" markerHeight="7" orient="auto"><path d="M0 0L10 5L0 10z" fill="#7f8c93"/></marker><filter id="focus" x="-12%" y="-20%" width="124%" height="140%"><feDropShadow dx="0" dy="0" stdDeviation="5" flood-color="#24738e" flood-opacity=".45"/></filter></defs>
  <rect class="bg" width="1400" height="1000"/><text class="t ey" x="40" y="38">ADMIN-KARTE · TRANSPORT, HOSTTRUST, USERAUTH UND CHANNELS</text><text class="t h1" x="40" y="76">Serveridentität wird vor Benutzer-Credentials geprüft</text><rect class="pill" x="1174" y="33" width="186" height="34" rx="17"/><text class="t pilltext" x="1267" y="55">28 VERLINKTE BLÖCKE</text>
  <rect class="panel" x="30" y="100" width="1340" height="205" rx="20"/><path class="head" d="M50 100h1300a20 20 0 0 1 20 20v35H30v-35a20 20 0 0 1 20-20z"/><text class="t h2" x="55" y="136">1 · VERBINDUNGSPHASEN — FEHLER NACH DER TATSÄCHLICHEN PROTOKOLLGRENZE SUCHEN</text><path class="arrow" d="M221 220H233M407 220H419M593 220H605M779 220H791M965 220H977M1151 220H1163"/>
  <a href="/kb/tcp" tabindex="0" aria-label="TCP-Verbindung"><rect class="hit" x="47" y="177" width="174" height="86" rx="13"/><text class="t label" x="134" y="210">TCP</text><text class="t sub" x="134" y="234">DNS · Route · SYN/ACK</text></a>
  <a href="https://www.rfc-editor.org/rfc/rfc4253.html" tabindex="0" aria-label="Version und KEXINIT"><rect class="hit" x="233" y="177" width="174" height="86" rx="13"/><text class="t label" x="320" y="210">Version / KEXINIT</text><text class="t sub" x="320" y="234">Algorithmen · Auswahl</text></a>
  <a href="https://www.rfc-editor.org/rfc/rfc9142.html" tabindex="0" aria-label="Key Exchange"><rect class="hit" x="419" y="177" width="174" height="86" rx="13"/><text class="t label" x="506" y="210">Key Exchange</text><text class="t sub" x="506" y="234">Secret · Exchange Hash</text></a>
  <a href="/kb/ssh#host-keys-serveridentität-vor-benutzeridentität" tabindex="0" aria-label="Host-Key-Prüfung"><rect class="hit" x="605" y="177" width="174" height="86" rx="13"/><text class="t label" x="692" y="210">Host Key</text><text class="t sub" x="692" y="234">Signatur · CA · Pin</text></a>
  <a href="https://www.rfc-editor.org/rfc/rfc4253.html" tabindex="0" aria-label="Neue Sitzungsschlüssel"><rect class="hit" x="791" y="177" width="174" height="86" rx="13"/><text class="t label" x="878" y="210">NEWKEYS</text><text class="t sub" x="878" y="234">Cipher · MAC/AEAD</text></a>
  <a href="https://www.rfc-editor.org/rfc/rfc4252.html" tabindex="0" aria-label="Benutzerauthentisierung"><rect class="hit" x="977" y="177" width="174" height="86" rx="13"/><text class="t label" x="1064" y="210">Userauth</text><text class="t sub" x="1064" y="234">Key · MFA · Principal</text></a>
  <a href="https://www.rfc-editor.org/rfc/rfc4254.html" tabindex="0" aria-label="Connection Channels"><rect class="hit" x="1163" y="177" width="190" height="86" rx="13"/><text class="t label" x="1258" y="210">Channels</text><text class="t sub" x="1258" y="234">Shell · SFTP · Forward</text></a>
  <rect class="panel" x="30" y="325" width="660" height="300" rx="20"/><path class="head" d="M50 325h620a20 20 0 0 1 20 20v38H30v-38a20 20 0 0 1 20-20z"/><text class="t h2" x="55" y="362">2 · TRUST UND CREDENTIAL-LIFECYCLE</text>
  <a href="https://man.openbsd.org/ssh" tabindex="0" aria-label="known hosts"><rect class="hit trust" x="50" y="405" width="190" height="76" rx="12"/><text class="t label" x="145" y="435">known_hosts</text><text class="t sub" x="145" y="458">Pinning · TOFU · Marker</text></a>
  <a href="https://www.rfc-editor.org/rfc/rfc4255.html" tabindex="0" aria-label="SSHFP und DNSSEC"><rect class="hit trust" x="250" y="405" width="190" height="76" rx="12"/><text class="t label" x="345" y="435">SSHFP</text><text class="t sub" x="345" y="458">Fingerprint · DNSSEC</text></a>
  <a href="https://github.com/openssh/openssh-portable/blob/master/PROTOCOL.certkeys" tabindex="0" aria-label="Host Certificate Authority"><rect class="hit trust" x="450" y="405" width="220" height="76" rx="12"/><text class="t label" x="560" y="435">Host-CA</text><text class="t sub" x="560" y="458">Principal · Gültigkeit</text></a>
  <a href="/kb/ssh#public-key-verfahren-und-schlüsseltypen" tabindex="0" aria-label="User Public Key"><rect class="hit trust" x="50" y="495" width="190" height="76" rx="12"/><text class="t label" x="145" y="525">User Key</text><text class="t sub" x="145" y="548">Ed25519 · RSA/SHA-2</text></a>
  <a href="/kb/ssh#ssh-agent-und-agent-forwarding" tabindex="0" aria-label="SSH Agent"><rect class="hit trust" x="250" y="495" width="190" height="76" rx="12"/><text class="t label" x="345" y="525">Agent</text><text class="t sub" x="345" y="548">Socket · Signieranfrage</text></a>
  <a href="https://www.openssh.com/txt/release-8.2" tabindex="0" aria-label="FIDO Security Key"><rect class="hit trust" x="450" y="495" width="105" height="76" rx="12"/><text class="t label" x="502" y="525">FIDO</text><text class="t sub" x="502" y="548">Touch · PIN</text></a>
  <a href="/kb/ssh#openssh-zertifikate-und-principals" tabindex="0" aria-label="User Certificate"><rect class="hit trust" x="565" y="495" width="105" height="76" rx="12"/><text class="t label" x="617" y="525">User Cert</text><text class="t sub" x="617" y="548">Serial · Expiry</text></a>
  <text class="t note" x="50" y="601">Inventar: Besitzer · Zweck · Principal · Quelle · Ablauf · letzte Nutzung · Revocation</text>
  <rect class="panel" x="710" y="325" width="660" height="300" rx="20"/><path class="head" d="M730 325h620a20 20 0 0 1 20 20v38H710v-38a20 20 0 0 1 20-20z"/><text class="t h2" x="735" y="362">3 · CHANNELS UND SERVERPOLICY</text>
  <a href="https://www.rfc-editor.org/rfc/rfc4254.html" tabindex="0" aria-label="Shell und Exec"><rect class="hit channel" x="730" y="405" width="190" height="76" rx="12"/><text class="t label" x="825" y="435">Shell / Exec</text><text class="t sub" x="825" y="458">PTY · Command · Exit</text></a>
  <a href="https://man.openbsd.org/sftp" tabindex="0" aria-label="SFTP Subsystem"><rect class="hit channel" x="930" y="405" width="190" height="76" rx="12"/><text class="t label" x="1025" y="435">SFTP</text><text class="t sub" x="1025" y="458">Subsystem · Chroot</text></a>
  <a href="/kb/ssh#port-forwarding-und-trust-boundaries" tabindex="0" aria-label="Local Forward"><rect class="hit channel" x="1130" y="405" width="220" height="76" rx="12"/><text class="t label" x="1240" y="435">Local / Dynamic</text><text class="t sub" x="1240" y="458">-L · -D · PermitOpen</text></a>
  <a href="/kb/ssh#port-forwarding-und-trust-boundaries" tabindex="0" aria-label="Remote Forward"><rect class="hit channel" x="730" y="495" width="145" height="76" rx="12"/><text class="t label" x="802" y="525">Remote</text><text class="t sub" x="802" y="548">-R · Listen</text></a>
  <a href="https://man.openbsd.org/ssh" tabindex="0" aria-label="ProxyJump Bastion"><rect class="hit channel" x="885" y="495" width="175" height="76" rx="12"/><text class="t label" x="972" y="525">ProxyJump</text><text class="t sub" x="972" y="548">Bastion ohne Agent</text></a>
  <a href="https://man.openbsd.org/sshd#AUTHORIZED_KEYS_FILE_FORMAT" tabindex="0" aria-label="Authorized Keys Restrictions"><rect class="hit channel" x="1070" y="495" width="135" height="76" rx="12"/><text class="t label" x="1137" y="525">Key Policy</text><text class="t sub" x="1137" y="548">from · command</text></a>
  <a href="https://man.openbsd.org/sshd_config" tabindex="0" aria-label="Match und effektive Policy"><rect class="hit channel" x="1215" y="495" width="135" height="76" rx="12"/><text class="t label" x="1282" y="525">Match</text><text class="t sub" x="1282" y="548">sshd -T -C</text></a>
  <text class="t note" x="730" y="601">Kein Shellrecht bedeutet nicht automatisch: kein Tunnel, kein Agent und kein interner Zugriff.</text>
  <rect class="panel" x="30" y="645" width="1340" height="300" rx="20"/><path class="head" d="M50 645h1300a20 20 0 0 1 20 20v38H30v-38a20 20 0 0 1 20-20z"/><text class="t h2" x="55" y="682">4 · BETRIEB UND RECOVERY — EFFEKTIVE POLICY STATT KONFIGURATIONSAUSSCHNITT</text>
  <a href="/kb/ssh#diagnose-nach-protokollphase" tabindex="0" aria-label="Pfad- und Listenerinventar"><rect class="hit ops" x="50" y="725" width="175" height="84" rx="13"/><text class="t label" x="137" y="757">Pfad</text><text class="t sub" x="137" y="781">DNS · TCP · Bastion</text></a>
  <a href="https://www.rfc-editor.org/rfc/rfc9142.html" tabindex="0" aria-label="Algorithmuspolicy"><rect class="hit ops" x="237" y="725" width="175" height="84" rx="13"/><text class="t label" x="324" y="757">Algorithmen</text><text class="t sub" x="324" y="781">KEX · Hostkey · AEAD</text></a>
  <a href="/kb/ssh#host-key-lifecycle-und-rotation" tabindex="0" aria-label="Host-Key-Rotation"><rect class="hit ops" x="424" y="725" width="175" height="84" rx="13"/><text class="t label" x="511" y="757">Rotation</text><text class="t sub" x="511" y="781">parallel · verify · revoke</text></a>
  <a href="/kb/haertung" tabindex="0" aria-label="Netzgrenze und Rate Limit"><rect class="hit ops" x="611" y="725" width="175" height="84" rx="13"/><text class="t label" x="698" y="757">Netzgrenze</text><text class="t sub" x="698" y="781">Source · Rate · Segment</text></a>
  <a href="/kb/ssh#logging-audit-und-sessionnachweis" tabindex="0" aria-label="Logs und Audit"><rect class="hit ops" x="798" y="725" width="175" height="84" rx="13"/><text class="t label" x="885" y="757">Audit</text><text class="t sub" x="885" y="781">Fingerprint · Session · sudo</text></a>
  <a href="/kb/ssh#backup-recovery-und-break-glass" tabindex="0" aria-label="Out of Band und Break Glass"><rect class="hit ops" x="985" y="725" width="175" height="84" rx="13"/><text class="t label" x="1072" y="757">Break Glass</text><text class="t sub" x="1072" y="781">OOB · Offline Credential</text></a>
  <a href="/kb/backup-dr" tabindex="0" aria-label="Recoverytest"><rect class="hit ops" x="1172" y="725" width="181" height="84" rx="13"/><text class="t label" x="1262" y="757">Recovery</text><text class="t sub" x="1262" y="781">CA · Keys · Policy · Logs</text></a>
  <path class="arrow" d="M138 830H1260"/><text class="t note" x="50" y="872">TCP → KEX/Hosttrust → Userauth → Autorisierung → Channel → Remoteprivileg → Audit und Exitstatus</text><text class="t note" x="50" y="910">Minimaler Nachweis: Quelle · Ziel · Hostprincipal · Algorithmen · Userprincipal/Fingerprint · Match-Policy · Channel · Resultat</text><text class="t note" x="40" y="978">Interaktive Infografik · Primärstandards und vertiefende KB-Abschnitte öffnen sich per Klick oder Tastaturfokus.</text>
</svg>
