<?xml version="1.0" encoding="UTF-8"?>
<svg xmlns="http://www.w3.org/2000/svg" viewBox="0 0 1400 1000" role="img" aria-labelledby="title desc">
  <title id="title">Storage-Datenpfad, Semantik und Recovery</title>
  <desc id="desc">Interaktive Übersicht über Anwendung, Cache, Dateisystem, Volume, Controller, Medium, Block-, Datei- und Objektspeicher, Konsistenz, Integrität und Wiederherstellung.</desc>
  <style>:root{color-scheme:light}.bg{fill:#faf8f4}.panel{fill:#fff;stroke:#d8d1c8;stroke-width:2}.head{fill:#f1ede7}.hit{fill:#edf5f7;stroke:#24738e;stroke-width:1.8;transition:fill .16s ease,stroke .16s ease}.hit.model{fill:#f7f1ec;stroke:#8b3518}.hit.sem{fill:#f2f5ea;stroke:#55743a}.hit.ops{fill:#f1eff8;stroke:#6752a1}.t{font-family:Inter,Segoe UI,Arial,sans-serif;fill:#111827}.ey{font-size:16px;font-weight:700;letter-spacing:2px;fill:#687086}.h1{font-size:30px;font-weight:750}.h2{font-size:17px;font-weight:750;letter-spacing:1.25px}.label{font-size:15.5px;font-weight:750;text-anchor:middle}.sub{font-size:12px;text-anchor:middle;fill:#526673}.note{font-size:13px;fill:#65717a}.arrow{stroke:#7f8c93;stroke-width:2;fill:none;marker-end:url(#arr)}a{text-decoration:none;outline:none}a:hover .hit,a:focus .hit{fill:#d4edf5;stroke:#075f7d;stroke-width:3}a:hover .hit.model,a:focus .hit.model{fill:#f8dfd2;stroke:#7a270e}a:hover .hit.sem,a:focus .hit.sem{fill:#dfeccd;stroke:#365a1d}a:hover .hit.ops,a:focus .hit.ops{fill:#e2dcf7;stroke:#4c3789}a:focus .hit{filter:url(#focus)}.pill{fill:#1f6f89}.pilltext{fill:#fff;font-size:13px;font-weight:700;text-anchor:middle}</style>
  <defs><marker id="arr" viewBox="0 0 10 10" refX="9" refY="5" markerWidth="7" markerHeight="7" orient="auto"><path d="M0 0L10 5L0 10z" fill="#7f8c93"/></marker><filter id="focus" x="-12%" y="-20%" width="124%" height="140%"><feDropShadow dx="0" dy="0" stdDeviation="5" flood-color="#24738e" flood-opacity=".45"/></filter></defs>
  <rect class="bg" width="1400" height="1000"/>
  <text class="t ey" x="40" y="38">ADMIN-KARTE · DATENPFAD, COMMITZUSAGE UND FEHLERDOMÄNEN</text>
  <text class="t h1" x="40" y="76">Bestätigte Bytes sind eine End-to-End-Zusage</text>
  <rect class="pill" x="1174" y="33" width="186" height="34" rx="17"/><text class="t pilltext" x="1267" y="55">28 VERLINKTE BLÖCKE</text>
  <rect class="panel" x="30" y="100" width="1340" height="205" rx="20"/><path class="head" d="M50 100h1300a20 20 0 0 1 20 20v35H30v-35a20 20 0 0 1 20-20z"/>
  <text class="t h2" x="55" y="136">1 · SCHREIBPFAD — JEDE SCHICHT KANN PUFFERN, BESTÄTIGEN ODER FEHLER VERBERGEN</text>
  <path class="arrow" d="M221 220H233M407 220H419M593 220H605M779 220H791M965 220H977M1151 220H1163"/>
  <a href="/kb/storage#cache-flush-und-dauerhaftigkeit" tabindex="0" aria-label="Anwendung und Write Ahead Log"><rect class="hit" x="47" y="177" width="174" height="86" rx="13"/><text class="t label" x="134" y="210">Anwendung</text><text class="t sub" x="134" y="234">Buffer · WAL · Commit</text></a>
  <a href="https://man7.org/linux/man-pages/man2/fsync.2.html" tabindex="0" aria-label="Page Cache und fsync"><rect class="hit" x="233" y="177" width="174" height="86" rx="13"/><text class="t label" x="320" y="210">Page Cache</text><text class="t sub" x="320" y="234">write · fsync · flush</text></a>
  <a href="https://docs.kernel.org/filesystems/vfs.html" tabindex="0" aria-label="Dateisystem und VFS"><rect class="hit" x="419" y="177" width="174" height="86" rx="13"/><text class="t label" x="506" y="210">FS / VFS</text><text class="t sub" x="506" y="234">Journal · Metadaten</text></a>
  <a href="/kb/storage#raid-erasure-coding-und-rebuild" tabindex="0" aria-label="Volume RAID und Erasure Coding"><rect class="hit" x="605" y="177" width="174" height="86" rx="13"/><text class="t label" x="692" y="210">Volume / RAID</text><text class="t sub" x="692" y="234">Mapping · Mirror · EC</text></a>
  <a href="https://docs.kernel.org/block/index.html" tabindex="0" aria-label="Block Layer und Transport"><rect class="hit" x="791" y="177" width="174" height="86" rx="13"/><text class="t label" x="878" y="210">Block / Fabric</text><text class="t sub" x="878" y="234">Queue · SCSI · NVMe</text></a>
  <a href="/kb/storage#cache-flush-und-dauerhaftigkeit" tabindex="0" aria-label="Controllercache"><rect class="hit" x="977" y="177" width="174" height="86" rx="13"/><text class="t label" x="1064" y="210">Controller</text><text class="t sub" x="1064" y="234">Cache · FUA · Multipath</text></a>
  <a href="/kb/storage#konsistenz-in-verteilten-speichersystemen" tabindex="0" aria-label="Medium und Replikat"><rect class="hit" x="1163" y="177" width="190" height="86" rx="13"/><text class="t label" x="1258" y="210">Medium / Replica</text><text class="t sub" x="1258" y="234">Persistenz · Quorum</text></a>
  <rect class="panel" x="30" y="325" width="660" height="300" rx="20"/><path class="head" d="M50 325h620a20 20 0 0 1 20 20v38H30v-38a20 20 0 0 1 20-20z"/>
  <text class="t h2" x="55" y="362">2 · ZUGRIFFSMODELLE — NICHT AUSTAUSCHBAR</text>
  <a href="https://www.rfc-editor.org/rfc/rfc7143.html" tabindex="0" aria-label="Block Storage iSCSI"><rect class="hit model" x="50" y="405" width="190" height="76" rx="12"/><text class="t label" x="145" y="435">Block</text><text class="t sub" x="145" y="458">LBA · iSCSI · NVMe</text></a>
  <a href="https://www.rfc-editor.org/rfc/rfc8881.html" tabindex="0" aria-label="NFS File Storage"><rect class="hit model" x="250" y="405" width="190" height="76" rx="12"/><text class="t label" x="345" y="435">NFS</text><text class="t sub" x="345" y="458">Open · State · Lock</text></a>
  <a href="https://learn.microsoft.com/en-us/openspecs/windows_protocols/ms-smb2/5606ad47-5ee0-437a-817e-70c366052962" tabindex="0" aria-label="SMB File Storage"><rect class="hit model" x="450" y="405" width="220" height="76" rx="12"/><text class="t label" x="560" y="435">SMB</text><text class="t sub" x="560" y="458">Session · Lease · Failover</text></a>
  <a href="https://docs.aws.amazon.com/AmazonS3/latest/API/Welcome.html" tabindex="0" aria-label="S3 Object Storage"><rect class="hit model" x="50" y="495" width="190" height="76" rx="12"/><text class="t label" x="145" y="525">Objekt / S3</text><text class="t sub" x="145" y="548">Bucket · Key · Version</text></a>
  <a href="https://github.com/container-storage-interface/spec/blob/master/spec.md" tabindex="0" aria-label="Container Storage Interface"><rect class="hit model" x="250" y="495" width="190" height="76" rx="12"/><text class="t label" x="345" y="525">CSI</text><text class="t sub" x="345" y="548">Provision · Attach · Mount</text></a>
  <a href="/kb/storage#snapshots-und-clones" tabindex="0" aria-label="Snapshots und Clones"><rect class="hit model" x="450" y="495" width="105" height="76" rx="12"/><text class="t label" x="502" y="525">Snap</text><text class="t sub" x="502" y="548">CoW · Clone</text></a>
  <a href="/kb/storage#verschlüsselung-und-schlüsselgrenzen" tabindex="0" aria-label="Verschlüsselung und Schlüssel"><rect class="hit model" x="565" y="495" width="105" height="76" rx="12"/><text class="t label" x="617" y="525">Keys</text><text class="t sub" x="617" y="548">KMS · Restore</text></a>
  <text class="t note" x="50" y="601">Schnittstelle dokumentiert nicht automatisch Backend, Backup oder Fehlerdomäne.</text>
  <rect class="panel" x="710" y="325" width="660" height="300" rx="20"/><path class="head" d="M730 325h620a20 20 0 0 1 20 20v38H710v-38a20 20 0 0 1 20-20z"/>
  <text class="t h2" x="735" y="362">3 · SEMANTIK UND INTEGRITÄT</text>
  <a href="https://man7.org/linux/man-pages/man2/fsync.2.html" tabindex="0" aria-label="fsync und Commit"><rect class="hit sem" x="730" y="405" width="190" height="76" rx="12"/><text class="t label" x="825" y="435">Commit</text><text class="t sub" x="825" y="458">fsync · Flush · FUA</text></a>
  <a href="https://docs.kernel.org/filesystems/ext4/index.html" tabindex="0" aria-label="Journal und WAL"><rect class="hit sem" x="930" y="405" width="190" height="76" rx="12"/><text class="t label" x="1025" y="435">Journal / WAL</text><text class="t sub" x="1025" y="458">Crash Recovery</text></a>
  <a href="https://www.cs.cornell.edu/fbs/publications/SMSurvey.pdf" tabindex="0" aria-label="Konsistenz und Quorum"><rect class="hit sem" x="1130" y="405" width="220" height="76" rx="12"/><text class="t label" x="1240" y="435">Konsistenz</text><text class="t sub" x="1240" y="458">Quorum · Lag · Konflikt</text></a>
  <a href="https://openzfs.github.io/openzfs-docs/Basic%20Concepts/Checksums.html" tabindex="0" aria-label="End-to-End-Checksums"><rect class="hit sem" x="730" y="495" width="145" height="76" rx="12"/><text class="t label" x="802" y="525">Checksum</text><text class="t sub" x="802" y="548">Sollwert</text></a>
  <a href="https://btrfs.readthedocs.io/en/latest/Scrub.html" tabindex="0" aria-label="Scrub und Repair"><rect class="hit sem" x="885" y="495" width="175" height="76" rx="12"/><text class="t label" x="972" y="525">Scrub</text><text class="t sub" x="972" y="548">Lesen · Prüfen · Repair</text></a>
  <a href="/kb/storage#thin-provisioning-discard-und-kapazität" tabindex="0" aria-label="Thin Provisioning"><rect class="hit sem" x="1070" y="495" width="135" height="76" rx="12"/><text class="t label" x="1137" y="525">Thin</text><text class="t sub" x="1137" y="548">Overcommit</text></a>
  <a href="/kb/storage#multipathing-und-failure-domains" tabindex="0" aria-label="Multipathing"><rect class="hit sem" x="1215" y="495" width="135" height="76" rx="12"/><text class="t label" x="1282" y="525">Paths</text><text class="t sub" x="1282" y="548">Failover</text></a>
  <text class="t note" x="730" y="601">Redundanz repariert nur, wenn Fehler erkannt und eine gute Kopie verfügbar ist.</text>
  <rect class="panel" x="30" y="645" width="1340" height="300" rx="20"/><path class="head" d="M50 645h1300a20 20 0 0 1 20 20v38H30v-38a20 20 0 0 1 20-20z"/>
  <text class="t h2" x="55" y="682">4 · BETRIEB UND RECOVERY — REDUNDANZ, SNAPSHOT, BACKUP UND ARCHIV TRENNEN</text>
  <a href="/kb/storage#thin-provisioning-discard-und-kapazität" tabindex="0" aria-label="Kapazität und Reserve"><rect class="hit ops" x="50" y="725" width="175" height="84" rx="13"/><text class="t label" x="137" y="757">Kapazität</text><text class="t sub" x="137" y="781">Bytes · Meta · Reserve</text></a>
  <a href="https://fio.readthedocs.io/en/latest/fio_doc.html" tabindex="0" aria-label="Latenz IOPS und Durchsatz"><rect class="hit ops" x="237" y="725" width="175" height="84" rx="13"/><text class="t label" x="324" y="757">Performance</text><text class="t sub" x="324" y="781">p99 · IOPS · Queue</text></a>
  <a href="https://docs.ceph.com/en/latest/architecture/" tabindex="0" aria-label="Replikation und Repair"><rect class="hit ops" x="424" y="725" width="175" height="84" rx="13"/><text class="t label" x="511" y="757">Replica / EC</text><text class="t sub" x="511" y="781">Place · Rebuild · Scrub</text></a>
  <a href="https://learn.microsoft.com/en-us/windows-server/storage/file-server/volume-shadow-copy-service" tabindex="0" aria-label="Quiesce und Snapshot"><rect class="hit ops" x="611" y="725" width="175" height="84" rx="13"/><text class="t label" x="698" y="757">Quiesce</text><text class="t sub" x="698" y="781">VSS · Freeze · Snapshot</text></a>
  <a href="/kb/backup-dr" tabindex="0" aria-label="Backup"><rect class="hit ops" x="798" y="725" width="175" height="84" rx="13"/><text class="t label" x="885" y="757">Backup</text><text class="t sub" x="885" y="781">Katalog · Retention · Keys</text></a>
  <a href="/kb/storage#backup-replikation-und-archiv-trennen" tabindex="0" aria-label="Restoretest"><rect class="hit ops" x="985" y="725" width="175" height="84" rx="13"/><text class="t label" x="1072" y="757">Restore</text><text class="t sub" x="1072" y="781">sauberes Ziel · Verify</text></a>
  <a href="https://csrc.nist.gov/pubs/sp/800/88/r1/final" tabindex="0" aria-label="Medienlöschung"><rect class="hit ops" x="1172" y="725" width="181" height="84" rx="13"/><text class="t label" x="1262" y="757">Sanitize</text><text class="t sub" x="1262" y="781">Clear · Purge · Destroy</text></a>
  <path class="arrow" d="M138 830H1260"/>
  <text class="t note" x="50" y="872">Commitzusage → Integrität → Replikation → Snapshot/Quiesce → Backup → Restore → fachlicher Abgleich</text>
  <text class="t note" x="50" y="910">Minimaler Nachweis: Objekt/Volume · Pfad · Commitgrenze · Failure Domains · Checksum · RPO/RTO · Schlüssel · Restorezeit</text>
  <text class="t note" x="40" y="978">Interaktive Infografik · Primärstandards und vertiefende KB-Abschnitte öffnen sich per Klick oder Tastaturfokus.</text>
</svg>
